HIERARCHY
ROOT Hips
{
	OFFSET 0.000000 0.000000 0.000000
	CHANNELS 6 Xposition Yposition Zposition Xrotation Yrotation Zrotation
	JOINT LeftUpLeg_virtual
	{
		OFFSET 0.000000 0.000000 0.000000
		CHANNELS 3 Xrotation Yrotation Zrotation
		JOINT LeftUpLeg
		{
			OFFSET 15.427100 -6.655098 0.678600
			CHANNELS 3 Xrotation Yrotation Zrotation
			JOINT LeftLeg
			{
				OFFSET 4.081073 -39.591068 13.024000
				CHANNELS 3 Xrotation Yrotation Zrotation
				JOINT LeftFoot
				{
					OFFSET -4.081074 -37.707932 -15.979700
					CHANNELS 3 Xrotation Yrotation Zrotation
					JOINT LeftToeBase
					{
						OFFSET 5.346399 -15.068900 20.645000
						CHANNELS 3 Xrotation Yrotation Zrotation
						JOINT LeftToe_End
						{
							OFFSET 2.754700 0.931300 11.300900
							CHANNELS 3 Xrotation Yrotation Zrotation
							End Site
							{
								OFFSET 0 0 0
							}
						}
					}
				}
			}
		}
	}
	JOINT RightUpLeg_virtual
	{
		OFFSET 0.000000 0.000000 0.000000
		CHANNELS 3 Xrotation Yrotation Zrotation
		JOINT RightUpLeg
		{
			OFFSET -15.569500 -6.655098 0.678600
			CHANNELS 3 Xrotation Yrotation Zrotation
			JOINT RightLeg
			{
				OFFSET -4.081825 -39.591045 13.023800
				CHANNELS 3 Xrotation Yrotation Zrotation
				JOINT RightFoot
				{
					OFFSET 4.081824 -37.707954 -15.979600
					CHANNELS 3 Xrotation Yrotation Zrotation
					JOINT RightToeBase
					{
						OFFSET -5.346400 -15.068900 20.645000
						CHANNELS 3 Xrotation Yrotation Zrotation
						JOINT RightToe_End
						{
							OFFSET -2.754700 0.931300 11.300900
							CHANNELS 3 Xrotation Yrotation Zrotation
							End Site
							{
								OFFSET 0 0 0
							}
						}
					}
				}
			}
		}
	}
	JOINT Spine_virtual
	{
		OFFSET 0.000000 0.000000 0.000000
		CHANNELS 3 Xrotation Yrotation Zrotation
		JOINT Spine
		{
			OFFSET -0.279200 12.230698 -2.892100
			CHANNELS 3 Xrotation Yrotation Zrotation
			JOINT Spine1
			{
				OFFSET -0.232667 10.192268 -1.242267
				CHANNELS 3 Xrotation Yrotation Zrotation
				JOINT Spine1_split
				{
					OFFSET -0.232667 10.192268 -1.242267
					CHANNELS 3 Xrotation Yrotation Zrotation
					JOINT Spine2
					{
						OFFSET -0.232667 10.192268 -1.242267
						CHANNELS 3 Xrotation Yrotation Zrotation
						JOINT Neck_virtual
						{
							OFFSET 0.000000 0.000000 0.000000
							CHANNELS 3 Xrotation Yrotation Zrotation
							JOINT Neck
							{
								OFFSET -0.418800 17.814194 8.416900
								CHANNELS 3 Xrotation Yrotation Zrotation
								JOINT Head
								{
									OFFSET 0.000000 7.031097 3.806800
									CHANNELS 3 Xrotation Yrotation Zrotation
									JOINT HeadTop_End
									{
										OFFSET 0.000000 24.646606 12.978600
										CHANNELS 3 Xrotation Yrotation Zrotation
										End Site
										{
											OFFSET 0 0 0
										}
									}
								}
							}
						}
						JOINT LeftShoulder_virtual
						{
							OFFSET 0.000000 0.000000 0.000000
							CHANNELS 3 Xrotation Yrotation Zrotation
							JOINT LeftShoulder
							{
								OFFSET 8.476499 7.247704 -3.868750
								CHANNELS 3 Xrotation Yrotation Zrotation
								JOINT LeftShoulder_split
								{
									OFFSET 8.476499 7.247704 -3.868750
									CHANNELS 3 Xrotation Yrotation Zrotation
									JOINT LeftArm
									{
										OFFSET 9.308998 -2.777710 0.208600
										CHANNELS 3 Xrotation Yrotation Zrotation
										JOINT LeftForeArm
										{
											OFFSET 29.972298 0.000000 0.000000
											CHANNELS 3 Xrotation Yrotation Zrotation
											JOINT LeftHand
											{
												OFFSET 26.026505 0.000000 0.000000
												CHANNELS 3 Xrotation Yrotation Zrotation
												End Site
												{
													OFFSET 0 0 0
												}
											}
										}
									}
								}
							}
						}
						JOINT RightShoulder_virtual
						{
							OFFSET 0.000000 0.000000 0.000000
							CHANNELS 3 Xrotation Yrotation Zrotation
							JOINT RightShoulder
							{
								OFFSET -7.570500 7.247704 -3.868750
								CHANNELS 3 Xrotation Yrotation Zrotation
								JOINT RightShoulder_split
								{
									OFFSET -7.570500 7.247704 -3.868750
									CHANNELS 3 Xrotation Yrotation Zrotation
									JOINT RightArm
									{
										OFFSET -9.308998 -2.777710 0.208500
										CHANNELS 3 Xrotation Yrotation Zrotation
										JOINT RightForeArm
										{
											OFFSET -29.972300 0.000000 0.000000
											CHANNELS 3 Xrotation Yrotation Zrotation
											JOINT RightHand
											{
												OFFSET -26.026505 0.000000 0.000000
												CHANNELS 3 Xrotation Yrotation Zrotation
												End Site
												{
													OFFSET 0 0 0
												}
											}
										}
									}
								}
							}
						}
					}
				}
			}
		}
	}
}
MOTION
Frames: 10
Frame Time: 0.03333333
-8.831875 121.105698 -4.271740 0.000000 0.000000 0.000000 6.757253 -18.856740 2.878543 -142.155962 -37.344428 23.610046 115.976694 -24.392789 -12.999743 45.367988 -21.057361 -18.700206 -3.382186 -0.468237 4.103705 0.000000 0.000000 0.000000 8.967266 -23.517267 2.683550 -97.415792 47.942416 -46.856218 109.719544 19.472401 12.751432 11.862343 17.994796 52.454740 7.979285 1.080791 0.934892 0.000000 0.000000 0.000000 9.459665 -26.461217 3.332098 31.397871 6.392112 0.122514 5.115001 0.841759 0.915838 -0.874319 0.684800 -0.455809 0.000000 0.000000 0.000000 7.908065 0.908579 1.774779 6.812414 0.647781 2.227079 -2.961634 35.536347 -23.792909 0.000000 0.000000 0.000000 6.715132 1.407410 0.489228 1.237717 -5.485881 9.706063 3.618811 -0.407185 2.461276 -37.929164 19.071556 14.747355 -3.157377 -7.030213 -1.623408 0.000000 0.000000 0.000000 7.826784 1.358723 1.258999 -1.977076 -4.762588 -28.988938 2.824174 -0.064417 -2.125506 -49.844081 8.520559 -9.018421 1.604761 21.067869 -0.970436 0.000000 0.000000 0.000000 
-8.849288 118.863258 -3.579994 0.000000 0.000000 0.000000 7.158786 -21.373407 2.626502 -144.628668 -36.114571 26.500890 118.737429 -27.037823 -12.277075 50.753572 -23.121534 -9.966163 -5.937299 -1.193856 4.516420 0.000000 0.000000 0.000000 9.532787 -22.869674 2.213679 -91.702632 43.033289 -51.372038 109.030979 18.561563 13.257024 6.643974 14.815157 51.322417 5.241442 0.856084 1.420328 0.000000 0.000000 0.000000 10.169931 -25.607172 2.789718 30.901821 7.552933 -0.250235 4.816394 1.245028 0.803306 -0.364018 0.361981 0.471872 0.000000 0.000000 0.000000 8.284237 0.972380 1.588174 7.830339 -0.123837 2.333983 -2.082678 34.428067 -24.150309 0.000000 0.000000 0.000000 6.500152 1.590811 0.227361 1.223370 -5.077413 9.202768 3.395768 -1.282441 1.295153 -36.855571 16.574834 20.470133 -3.063281 -6.435659 -1.094334 0.000000 0.000000 0.000000 8.166758 1.529079 1.118384 -1.941066 -3.486404 -30.021813 1.934549 0.838003 -2.500261 -43.147801 3.723897 -16.708605 1.816175 22.365997 -1.196164 0.000000 0.000000 0.000000 
-8.713901 115.016609 -3.567200 0.000000 0.000000 0.000000 6.670538 -23.326807 1.369247 -142.198665 -34.524666 29.483458 119.986725 -27.665972 -10.932158 52.363304 -22.805365 -1.909804 -7.107140 -1.721793 4.294779 0.000000 0.000000 0.000000 8.801381 -21.850103 0.673225 -85.894745 35.429325 -51.713196 108.536494 17.482491 13.420264 -0.933200 10.176328 47.041412 4.950821 0.720524 1.968345 0.000000 0.000000 0.000000 9.528097 -23.536091 1.126037 29.903323 8.518162 -0.078401 4.468638 1.634830 0.592869 0.244777 0.696908 0.774420 0.000000 0.000000 0.000000 8.352474 0.980679 1.221377 8.350946 -0.633228 2.717994 -1.355834 33.007941 -23.865832 0.000000 0.000000 0.000000 6.190288 1.683553 -0.046678 1.086968 -4.348070 8.885344 2.950293 -2.541229 -0.343736 -35.102039 13.416057 24.624382 -2.620737 -5.494028 -0.409190 0.000000 0.000000 0.000000 8.295413 1.539495 0.764918 -1.369325 -1.262183 -29.328880 1.441282 2.129763 -2.767604 -37.210809 -0.438740 -21.486614 1.395920 25.936446 -1.161467 0.000000 0.000000 0.000000 
-8.666632 110.286797 -3.847923 0.000000 0.000000 0.000000 5.153394 -23.291886 -0.889394 -135.220219 -31.869178 32.260397 118.402941 -25.387644 -10.308721 50.012465 -19.317288 4.295783 -6.207299 -1.676975 3.059309 0.000000 0.000000 0.000000 7.093181 -20.826278 -1.508035 -79.447640 26.180060 -48.507870 107.122365 16.484404 13.307601 -8.066283 6.558556 40.915623 5.684460 0.590672 2.359068 0.000000 0.000000 0.000000 7.805676 -20.672652 -1.130077 28.320114 9.005837 0.656575 4.012700 1.904390 0.397834 0.547861 1.547574 0.710514 0.000000 0.000000 0.000000 8.003061 0.956315 0.842108 8.572884 -0.725616 3.233048 -0.936851 31.674435 -23.117438 0.000000 0.000000 0.000000 5.627599 1.729332 -0.238681 0.810887 -3.430748 8.646716 2.321323 -3.736091 -1.638617 -33.206068 11.980657 26.816935 -1.909947 -3.731036 0.213075 0.000000 0.000000 0.000000 7.990680 1.428891 0.398033 -0.542064 1.117071 -27.126776 1.779705 2.893449 -2.614339 -33.909150 -4.151272 -22.460623 0.505689 30.162238 -1.016392 0.000000 0.000000 0.000000 
-8.463977 105.262039 -4.354218 0.000000 0.000000 0.000000 3.318106 -21.809882 -3.444340 -123.407557 -27.645559 35.080302 112.987441 -20.186450 -10.392130 45.195027 -13.633584 7.845472 -5.257520 -1.348756 1.529623 0.000000 0.000000 0.000000 4.884188 -20.315810 -3.813863 -72.113404 16.818796 -42.911124 103.199780 16.005491 12.682696 -11.582293 5.500228 36.340008 3.129106 0.282557 2.491260 0.000000 0.000000 0.000000 5.446789 -18.062958 -3.333398 26.142517 8.738921 1.656775 3.359378 1.971753 0.281770 1.497471 2.234550 0.395634 0.000000 0.000000 0.000000 7.164106 0.921952 0.589406 8.626187 -0.544674 3.620370 -0.820030 30.484278 -22.017041 0.000000 0.000000 0.000000 4.960993 1.719919 -0.225044 0.562652 -2.195389 8.286053 1.732416 -4.135594 -2.300309 -31.122365 13.568020 26.193342 -1.256374 -1.655091 0.511865 0.000000 0.000000 0.000000 7.201137 1.276542 0.144447 0.166253 2.820747 -23.854147 1.993774 3.206329 -2.033278 -33.101347 -8.680884 -20.045956 -0.641087 33.070307 -0.929517 0.000000 0.000000 0.000000 
-8.326239 100.328690 -4.593193 0.000000 0.000000 0.000000 1.877860 -19.638604 -5.402267 -107.678219 -20.893817 36.266983 103.608970 -12.535036 -10.207644 39.199344 -7.337010 9.120473 -6.077380 -1.043070 0.721082 0.000000 0.000000 0.000000 3.008808 -19.404921 -5.594794 -63.036198 8.557802 -36.404994 96.014148 16.045236 11.734813 -10.760387 6.356957 34.220877 -3.825238 -0.251383 2.347842 0.000000 0.000000 0.000000 3.229828 -15.769841 -4.928667 23.735602 7.706187 2.569353 2.636910 1.873434 0.260028 2.077632 2.608416 0.146706 0.000000 0.000000 0.000000 5.957727 0.878608 0.505651 8.470499 -0.073821 3.764635 -0.485067 29.632912 -20.886481 0.000000 0.000000 0.000000 4.221917 1.649284 -0.065444 0.331184 -0.605836 7.595356 1.177965 -4.116781 -1.892010 -28.070291 18.795294 21.292753 -0.873021 -0.152306 0.442173 0.000000 0.000000 0.000000 6.097892 1.113507 -0.000294 0.652193 3.383277 -19.971478 2.053186 2.529591 -1.695394 -33.021618 -14.869797 -14.225302 -1.710221 33.475529 -1.055261 0.000000 0.000000 0.000000 
-8.307596 95.564568 -5.154964 0.000000 0.000000 0.000000 0.467341 -17.478879 -6.373721 -90.095051 -12.481988 34.544221 91.710009 -4.416008 -7.643757 32.433860 -2.865551 8.365858 -7.922157 -1.003862 0.875232 0.000000 0.000000 0.000000 1.655511 -17.483131 -6.405949 -52.788961 2.160074 -29.627837 86.381744 15.696712 10.966583 -8.709003 7.012359 31.365595 -10.051854 -0.793564 2.203005 0.000000 0.000000 0.000000 1.421469 -13.960264 -5.836894 21.604916 6.087196 2.988132 2.022534 1.628732 0.273892 2.075814 2.468577 0.507048 0.000000 0.000000 0.000000 4.651617 0.825861 0.482348 7.874032 0.491628 3.565554 0.172414 29.102965 -19.793125 0.000000 0.000000 0.000000 3.498069 1.519958 0.061259 0.139139 1.150075 6.441687 0.457596 -3.698722 -1.009055 -23.301168 25.777593 10.732686 -0.725534 0.398129 0.116847 0.000000 0.000000 0.000000 4.907440 0.954661 -0.070547 0.914226 2.698583 -16.212668 2.189755 1.790225 -1.516003 -30.698504 -22.739600 -4.435687 -2.281245 31.691661 -1.520498 0.000000 0.000000 0.000000 
-8.203868 90.495605 -5.742241 0.000000 0.000000 0.000000 -0.626037 -15.676903 -6.442118 -73.104266 -4.951444 29.461311 79.548242 1.938842 -2.512157 23.874875 -1.303083 5.562720 -8.999219 -1.210333 1.477767 0.000000 0.000000 0.000000 0.388395 -15.078184 -6.564961 -42.662168 -1.807743 -23.214123 75.981886 14.177383 10.765789 -9.229606 5.587816 25.162364 -10.918309 -1.088745 2.349386 0.000000 0.000000 0.000000 0.344869 -12.452369 -6.067552 20.347598 4.206032 2.749860 1.601986 1.320276 0.205383 2.039279 2.072459 1.015840 0.000000 0.000000 0.000000 3.514359 0.741113 0.369848 6.479497 1.076834 3.174380 1.063239 28.771403 -18.757737 0.000000 0.000000 0.000000 3.013309 1.276407 0.022237 0.032271 2.965966 5.099944 -0.061300 -3.146032 -0.360878 -16.203866 31.007078 -5.393674 -0.946759 -0.589563 -0.357329 0.000000 0.000000 0.000000 4.018726 0.785453 -0.182984 1.045007 1.255927 -12.949485 2.006195 1.671583 -1.891156 -22.923684 -30.098591 10.684290 -2.291404 29.977372 -2.049097 0.000000 0.000000 0.000000 
-8.072725 84.413269 -6.733265 0.000000 0.000000 0.000000 -1.567964 -13.481503 -5.965395 -60.148401 -0.529049 22.405708 70.684200 5.521452 3.189465 13.272645 -1.511294 1.612435 -8.877184 -1.319623 1.888378 0.000000 0.000000 0.000000 -1.111840 -11.509073 -6.358643 -34.404926 -3.283163 -18.568443 68.991003 11.654126 10.655971 -14.292777 2.252938 15.411169 -7.245829 -0.972136 2.667092 0.000000 0.000000 0.000000 -0.150435 -10.550259 -5.660909 20.531108 2.430572 1.962564 1.621144 0.987654 -0.014222 1.206592 1.296341 1.454531 0.000000 0.000000 0.000000 2.837512 0.585131 0.107655 4.035145 1.629065 2.835658 1.656060 28.651561 -17.770226 0.000000 0.000000 0.000000 2.807589 0.936580 -0.300856 -0.083932 4.360858 3.970834 -0.670623 -2.901420 -0.080683 -9.457502 31.574336 -23.999302 -1.331514 -2.791989 -0.791296 0.000000 0.000000 0.000000 3.674769 0.595181 -0.373633 1.053409 -0.175044 -10.502768 2.037430 2.305098 -2.400144 -10.031653 -32.570399 30.707417 -1.801054 29.699947 -2.434002 0.000000 0.000000 0.000000 
-7.954793 76.881065 -7.771965 0.000000 0.000000 0.000000 -2.661441 -10.659430 -5.306279 -54.380405 -0.051022 16.076968 69.645820 7.154286 7.420961 2.862384 -1.879969 -2.733137 -8.154484 -1.095149 1.329515 0.000000 0.000000 0.000000 -3.078761 -7.578094 -5.964233 -29.792892 -2.989077 -16.585422 68.622036 8.956896 10.244479 -22.787038 -1.214762 4.436743 -2.966373 -0.551642 2.663389 0.000000 0.000000 0.000000 -0.608189 -8.513010 -4.822992 22.468438 0.948417 0.671366 2.174681 0.645003 -0.366462 0.481075 0.604829 1.436656 0.000000 0.000000 0.000000 2.712089 0.373035 -0.323628 0.611400 2.015453 2.714369 1.191633 28.540285 -16.742622 0.000000 0.000000 0.000000 3.026049 0.531370 -0.831333 -0.225277 5.036142 3.410297 -1.134499 -2.326953 -0.228600 -7.575069 27.371561 -39.611166 -1.810926 -6.110484 -1.116971 0.000000 0.000000 0.000000 3.995944 0.404412 -0.595098 0.967403 -0.887377 -8.936363 1.825459 3.597877 -2.783707 1.667978 -27.817743 49.825151 -1.000342 31.595731 -2.574687 0.000000 0.000000 0.000000 
